Coordinates
version=1
nRows=21
nColumns=12
inDegrees=yes

Units are S.I. units (second, meters, Newtons, ...)
Angles are in degrees

endheader
time	SC_y	SC_z	SC_x	AC_y	AC_z	AC_x	GH_y	GH_z	GH_yy	EL_x	PS_y
       0.0              -40.64          3.075          50.75          63.23         -4.411         -4.051          171.5          7.635          132.5          41.64          9.562
 0.0002252              -40.64          3.078          50.75          63.23         -4.411          -4.05          171.5          7.633          132.5          41.65          9.571
 0.0004505              -40.64           3.08          50.75          63.23         -4.412         -4.048          171.4          7.631          132.4          41.66          9.581
 0.0006757              -40.64          3.083          50.75          63.23         -4.412         -4.047          171.4          7.628          132.4          41.67          9.591
 0.0009009              -40.64          3.086          50.75          63.23         -4.413         -4.046          171.4          7.626          132.4          41.68          9.601
  0.001126              -40.64          3.089          50.75          63.23         -4.413         -4.045          171.3          7.623          132.3          41.69          9.613
  0.001351              -40.64          3.092          50.75          63.23         -4.414         -4.044          171.3           7.62          132.3           41.7          9.625
  0.001577              -40.64          3.095          50.75          63.24         -4.414         -4.042          171.3          7.616          132.2          41.71          9.638
  0.001802              -40.63          3.099          50.74          63.24         -4.415         -4.041          171.2          7.613          132.1          41.73          9.652
  0.002027              -40.63          3.103          50.74          63.24         -4.415         -4.039          171.2          7.609          132.1          41.74          9.667
  0.002252              -40.63          3.107          50.74          63.24         -4.416         -4.037          171.1          7.605          132.0          41.76          9.684
  0.002477              -40.63          3.111          50.74          63.24         -4.417         -4.035          171.1          7.601          131.9          41.78          9.701
  0.002703              -40.63          3.116          50.74          63.24         -4.417         -4.033          171.0          7.596          131.9           41.8           9.72
  0.002928              -40.63          3.122          50.73          63.25         -4.418         -4.031          170.9          7.591          131.8          41.82           9.74
  0.003153              -40.63          3.127          50.73          63.25         -4.419         -4.028          170.9          7.586          131.7          41.84          9.762
  0.003378              -40.63          3.133          50.73          63.25          -4.42         -4.026          170.8           7.58          131.6          41.86          9.786
  0.003604              -40.63           3.14          50.73          63.25         -4.421         -4.023          170.7          7.574          131.5          41.89          9.812
  0.003829              -40.63          3.147          50.72          63.26         -4.422          -4.02          170.6          7.567          131.4          41.92           9.84
  0.004054              -40.63          3.155          50.72          63.26         -4.423         -4.016          170.6          7.559          131.2          41.95          9.871
  0.004279              -40.62          3.164          50.72          63.26         -4.425         -4.013          170.4          7.551          131.1          41.99          9.904
  0.004505              -40.62          3.174          50.71          63.27         -4.426         -4.009          170.3          7.541          130.9          42.02          9.941
